<svg xmlns="http://www.w3.org/2000/svg" viewBox="0 0 512 512"><title>Boxing_Gloves</title><g id="artwork"><g id="_03_boxing_gloves" data-name="03_boxing_gloves"><path d="M389.1,287.5l7.08-2.26c53.49-36.59,36.16-86.85,36.16-86.85L416.77,153c-15.22-18.63-32-.76-32-.76C383.55,82.86,333,86.57,333,86.57s-38,3.07-69.8,20.92-22.8,57-22.8,57,30.42,79.81,41.31,108,22.06,42.22,22.06,42.22l.53-.17,19.07,59.87a11.1,11.1,0,0,0,13.94,7.2l32.5-10.35a50.53,50.53,0,0,1-33,60.15l-39.32,13a50.27,50.27,0,0,1-56.26-17.82l-2.84-3.83,30.48-19a11.32,11.32,0,0,0,3.61-15.59L236.7,330.8,233,333.14c38.62-46.76,10.65-87.74,10.65-87.74l-26.26-38.58c-19.26-13.58-30.94,7.45-30.94,7.45-18.44-64.75-66.1-48.38-66.1-48.38S84.55,178.46,58.43,203.3s-7.72,59.29-7.72,59.29,49.1,67.08,66.57,90.69,31.7,34,31.7,34l1.09-.69,35,56.1a11.32,11.32,0,0,0,15.59,3.61l27.49-17.15,3.41,4.6a62.27,62.27,0,0,0,69.67,22.06l39.31-13a62.56,62.56,0,0,0,40.72-75.19l30.26-9.64Z" style="fill:#dcd3d4"/><path d="M165,348.78s-14.24-10.34-31.7-33.95-66.57-90.69-66.57-90.69-18.4-34.45,7.72-59.29,61.88-37.41,61.88-37.41,47.66-16.37,66.1,48.38c0,0,11.67-21,30.94-7.44L259.59,207s29.16,42.71-13.14,90.66Z" style="fill:#f3b5af"/><rect x="178.05" y="334.66" width="54.89" height="72.04" transform="translate(-165.08 165) rotate(-31.97)" style="fill:#fff"/><rect x="224.67" y="310.82" width="42.1" height="67.83" transform="translate(-145.25 182.36) rotate(-31.97)" style="fill:#dcd3d4"/><path d="M163.73,355.86s-13.09-9.29-29.09-30.58-61-81.77-61-81.77-16.81-31.1,7.43-53.72,57.3-34.19,57.3-34.19,44.08-15.06,60.78,43.48c0,0,10.88-19.11,28.6-6.9l24,34.8s26.7,38.51-12.59,82.14Z" style="fill:#e08476"/><path d="M84.65,253.28l33.14,46.42s36.49-19.91,66.15,41.79l26.56-16.68,2.4,5.32,37.26-24s-60.26-30-36.41-73.19l2.66-5.62S196.07,203,201.55,188.81,180.19,268.37,84.65,253.28Z" style="fill:#e23c3c"/><path d="M177.13,204.22,167.56,197a61.06,61.06,0,0,0,10.56-21.45l11.64,2.94A73,73,0,0,1,177.13,204.22Z" style="fill:#142546"/><path d="M109.17,238.92a69.6,69.6,0,0,1-7.38-.38L103,226.61c14.51,1.51,30.17-2.44,44.1-11.13a77.63,77.63,0,0,0,14.74-11.87L170.5,212a89.42,89.42,0,0,1-17,13.71C139.61,234.32,124.12,238.92,109.17,238.92Z" style="fill:#142546"/><path d="M329.88,287.22s-6.45,1-22.06-42.21c-10.26-28.38-41.31-107.95-41.31-107.95s-9-39.18,22.79-57,69.8-20.91,69.8-20.91,50.56-3.71,51.78,65.68c0,0,16.77-17.87,32,.76l15.57,45.38s17.33,50.25-36.16,86.84Z" style="fill:#f2463e"/><path d="M299.39,222.75s36.8-16.31,54.26,56.9l-23.77,7.57s-6.09-.37-12.17-16.67S299.39,222.75,299.39,222.75Z" style="fill:#e08476"/><polygon points="443.39 321.39 349.97 352.65 330.1 287.13 423.52 255.87 443.39 321.39" style="fill:#fff"/><rect x="357.94" y="294.18" width="27.72" height="30.56" transform="matrix(0.95, -0.3, 0.3, 0.95, -76.39, 127.44)" style="fill:#4966a2"/><path d="M359.33,335.77l-12.91-40.56,37.84-12,12.92,40.55ZM361.49,303l5.64,17.69,15-4.77-5.63-17.69Z" style="fill:#142546"/><path d="M455.64,231.32a73.53,73.53,0,0,0,8.64-61.85l-12.71-39.9a26.2,26.2,0,0,0-32.9-17c-.57.17-1.11.38-1.65.59a79.68,79.68,0,0,0-3.4-18.38h0l-.12-.35c0-.12-.07-.25-.11-.37l-2-6.24-.43.14a59.4,59.4,0,0,0-26.36-28A57.5,57.5,0,0,0,340,55.8L299.54,68.68c-30.68,9.77-47.55,43.13-37.6,74.37l.06.18,50.11,129.49a45.9,45.9,0,0,0,12.55,17.92l21.9,68.75,52.27-16.65A46.69,46.69,0,0,1,368.09,400l-67,21.33a46.71,46.71,0,0,1-57.07-26l1.76-1.09h0l45.89-28.64-36.64-58.72c7-7.53,13.1-19.12,18.25-34.62a73.47,73.47,0,0,0-6.9-62.05l-22.17-35.54a26.22,26.22,0,0,0-36.1-8.39c-.5.31-1,.64-1.45,1a79.56,79.56,0,0,0-8.22-17.63l-.16-.26h0L195,144.05l-.29.18a58.47,58.47,0,0,0-76.86-13.51l-36,22.46a58.49,58.49,0,0,0-21.64,75l-.28.18,2.77,4.44c.08.13.17.25.25.37s.18.32.28.48l.1.16.68,1c.36.52.73,1,1.1,1.54l77.3,108.27a44.5,44.5,0,0,0,16.4,13.95l40.41,64.76,34.55-21.56a58.78,58.78,0,0,0,53.09,33.83,58.85,58.85,0,0,0,17.88-2.8l67-21.33a58.7,58.7,0,0,0,38.55-72.32l40.14-12.78-21-65.95C438,254.79,446.82,245.07,455.64,231.32ZM185.79,332.61l-17.89-25a38.29,38.29,0,0,0-46.25-12.81L94.27,256.43a72,72,0,0,0,13.82,2.81,79.18,79.18,0,0,0,8.31.43c16.87,0,34.36-5.2,50-15a96.4,96.4,0,0,0,33.89-35.39,84.4,84.4,0,0,0,9.1,18.46,55.31,55.31,0,0,0-4.87,25.08c.59,13.79,6.85,33.69,32.17,53l-23,14.34-2.23-3.57Zm63.85,45.07L242.34,366l11-7L247,348.86l-11,6.93-3.83-6.15,10.91-6.89-6.4-10.15-10.87,6.86-5.7-9.15,25.53-15.93,29.56,47.36ZM214.5,176.43a14,14,0,0,1,6.73-2.12A14.25,14.25,0,0,1,234.07,181l22.16,35.51a61.59,61.59,0,0,1,5.7,51.95c-4.42,13.3-9.7,23.55-15.26,29.78-32.9-23.57-32-47.41-28.57-59.56A80.78,80.78,0,0,0,234,251.53l6.34-10.19c-22.14-13.78-29.8-35-32.33-50.44A14.29,14.29,0,0,1,214.5,176.43ZM88.24,163.36l36-22.46a46.46,46.46,0,0,1,63.92,14.79l.16.26a67,67,0,0,1,9.11,23.46,26.28,26.28,0,0,0-1.62,9.13h-.06c-4.54,17.91-17.53,34.68-35.65,46-16,10-34,14.54-50.74,12.79-14.82-1.55-26.92-7.93-34.49-18.06l-1-1.41c-.25-.36-.49-.71-.72-1.08A46.43,46.43,0,0,1,88.24,163.36Zm40.62,141.52a26.29,26.29,0,0,1,29.28,9.7L175.59,339l-12.87,8a32.41,32.41,0,0,1-10.51-9.43Zm42.43,50.92,36.39-22.7,8,12.76-10.34,6.52,6.4,10.15L222,356l3.83,6.15-10.22,6.45,6.4,10.15,10.18-6.42L239.46,384l-36.38,22.71Zm229.65-26.32h0l-46.58,14.83-16.95-53.19L384,276.28l34.39-11,16.95,53.2Zm16-76.3-36.62,11.67-22.9,7.29-12.7-32.58-11.18,4.35L346,275.79l-14.68,4.68a34,34,0,0,1-8-12.08l-15.89-41.08a26.25,26.25,0,0,1,19.66,7l8.19-8.77a38.25,38.25,0,0,0-32.32-9.77l-29.62-76.52c-7.82-24.88,5.54-51.38,29.86-59.13L343.6,67.24A45.53,45.53,0,0,1,379,70.5,47.67,47.67,0,0,1,402.08,98,67,67,0,0,1,405,122.63a26.34,26.34,0,0,0-4.56,12.7c-1.57,18,1,44.14,22.16,66.21l8.66-8.3c-18-18.83-20.22-41.32-18.87-56.87A14.3,14.3,0,0,1,422.31,124a14,14,0,0,1,7-.39,14.27,14.27,0,0,1,10.79,9.64l12.58,39.51.12.38a61.5,61.5,0,0,1-7.3,51.74C435.54,240.43,425.39,250.5,417,253.18Z" style="fill:#142546"/></g></g></svg>