<svg width="600" height="600" viewBox="0 0 600 600" fill="none" xmlns="http://www.w3.org/2000/svg">
<g clip-path="url(#clip0_2516_201)">
<path d="M600 0V600H0V0H600ZM295.189 65.7949C236.432 68.5195 193.682 114.094 192.158 172.529C191.965 180.047 192.738 187.764 192.738 195.434C192.738 196.424 193.143 197.326 193.26 198.287C179.877 205.928 183.691 227.443 185.924 240.34C190.172 264.914 200.479 285.492 219.445 301.74C220.963 303.041 224.672 304.969 225.598 306.135C229.289 310.781 231.463 321.234 237.182 325.605C235.242 344.273 244.424 368.098 225.387 379.787C211.412 388.365 190.881 395.748 175.564 403.207C154.6 413.42 112.318 431.461 97.8281 447.932C79.9102 468.299 77.9062 497.443 80.2441 523.559C80.8594 530.467 86.1094 534.621 92.8418 534.984H508.318C514.395 535.002 520.57 530.947 521.426 524.66C522.311 518.15 521.766 505.846 521.502 498.908C520.371 469.301 509.637 447.006 483.404 432.123C448.969 412.582 411.006 396.967 375.398 379.582C357.311 368.367 366.68 342.768 364.564 325.031C370.154 320.613 372.193 310.934 376.154 306.152C377.895 304.049 382.131 301.781 384.375 299.725C405.955 279.926 416.537 252.164 417.791 222.984C418.207 213.24 417.709 203.643 408.457 198.258C410.027 174.645 409.752 151.283 400.107 129.293C381.896 87.7676 340.354 63.7148 295.189 65.8066V65.7949Z" fill="#FDFCE0"/>
<path d="M295.19 65.796C340.36 63.7042 381.903 87.7569 400.108 129.282C409.752 151.273 410.028 174.634 408.457 198.247C417.709 203.626 418.213 213.224 417.791 222.974C416.537 252.159 405.961 279.921 384.375 299.714C382.131 301.771 377.895 304.038 376.155 306.142C372.194 310.923 370.155 320.603 364.565 325.021C366.68 342.763 357.311 368.357 375.399 379.571C411.006 396.956 448.963 412.571 483.405 432.112C509.637 447.001 520.371 469.29 521.502 498.898C521.766 505.841 522.317 518.14 521.426 524.65C520.571 530.937 514.395 534.991 508.319 534.98H92.8479C86.1155 534.611 80.8655 530.462 80.2503 523.554C77.9182 497.444 79.9222 468.3 97.8343 447.927C112.324 431.456 154.606 413.415 175.571 403.202C190.887 395.743 211.418 388.36 225.393 379.782C244.43 368.093 235.248 344.269 237.188 325.601C231.469 321.23 229.295 310.777 225.604 306.13C224.678 304.964 220.969 303.036 219.451 301.735C200.479 285.487 190.172 264.909 185.93 240.335C183.703 227.439 179.883 205.923 193.266 198.282C193.149 197.321 192.744 196.419 192.744 195.429C192.744 187.759 191.965 180.048 192.164 172.525C193.688 114.089 236.432 68.5089 295.196 65.7901L295.19 65.796Z" fill="#182848"/>
<path d="M364.453 197.456C373.898 198.564 376.799 186.499 368.127 183.534C362.865 181.735 351.369 181.003 345.41 180.47C318.41 178.056 289.219 177.839 262.219 179.89C254.888 180.446 241.072 181.237 234.486 183.212C225.199 186.001 227.267 198.628 237.31 197.456C237.316 196.173 237.75 195.054 236.209 195.054C234.984 193.249 242.818 192.47 244.125 192.271C277.318 187.103 318.428 187.536 351.779 191.673C356.402 192.247 361.084 192.892 365.619 193.952C365.584 195.663 363.703 195.101 364.447 197.456H364.453Z" fill="#182848"/>
<path d="M236.637 201.645C224.309 200.76 211.588 197.778 199.336 200.215C187.992 203.977 188.057 214.489 188.678 224.701C191.233 266.907 218.121 311.819 263.971 315.229C268.723 315.58 273.586 314.836 278.315 315.235C278.66 313.881 278.057 314.268 277.576 313.893C276.334 312.92 268.822 307.143 268.207 306.885C265.664 305.807 259.84 305.414 256.512 304.518C223.828 295.735 207.668 265.717 201.744 234.481C200.608 228.481 196.219 213.053 205.336 212.666L237.305 215.625L236.637 201.639V201.645Z" fill="#182848"/>
<path d="M322.852 315.228C361.324 318.662 394.863 292.564 406.664 256.957C410.121 246.521 415.635 219.223 412.025 209.367C409.605 202.758 403.734 199.734 396.996 199.201L364.453 201.562L363.867 215.631C364.887 216.668 388.998 212.795 392.848 212.678C405.193 212.309 402.006 220.928 400.688 229.887C395.074 268.002 374.379 302.473 332.965 306.891L322.857 315.234L322.852 315.228Z" fill="#182848"/>
<path d="M270.112 202.154C266.649 202.441 247.735 202.969 246.364 205.055C245.256 232.887 248.813 264.012 262.401 288.674C268.014 298.863 275.661 309 287.11 312.885C285.071 310.02 282.036 307.934 279.78 305.279C264.276 287.057 255.364 253.617 254.274 230.004C253.922 222.346 253.231 212.543 259.881 207.434L270.118 202.154H270.112Z" fill="#182848"/>
<path d="M332.52 213.867H276.562C276.855 214.852 278.092 214.893 278.918 215.906C281.619 219.223 280.664 222.492 279.902 226.289C277.102 240.229 269.273 254.59 265.43 268.359H285.645L291.732 253.471L302.906 253.148L307.031 268.359H327.539L322.266 251.373C334.02 249.352 342.035 231.275 340.395 220.641C339.838 217.025 335.93 214.342 332.52 213.867Z" fill="#182848"/>
<path d="M312.299 322.266C304.881 324.932 296.924 324.076 289.459 322.266L289.436 325.969C290.021 328.436 309.404 329.432 311.766 326.115C312.609 324.926 312.299 323.572 312.299 322.26V322.266Z" fill="#182848"/>
<path d="M306.738 332.227H294.141C292.881 343.031 292.752 354.551 291.135 365.256C290.76 367.74 290.309 370.506 289.324 372.82C288.627 374.455 287.379 375.164 287.115 376.758C296.221 375.322 305.748 376.482 314.941 376.758L315.223 375.592C312.246 374.355 311.262 369.387 310.711 366.334C309.469 359.479 308.912 351.264 308.209 344.227C307.898 341.121 308.133 336.557 307.623 333.68C307.506 333.023 307.318 332.584 306.744 332.215L306.738 332.227Z" fill="#182848"/>
<path d="M322.266 388.477C322.061 386.437 323.162 382.289 320.684 381.563L281.543 381.445C278.807 381.949 279.557 386.35 279.493 388.477H322.266Z" fill="#182848"/>
<path d="M334.57 399.609C334.518 397.043 333.809 393.551 330.727 393.199L269.543 393.463C267.445 394.969 266.901 397.084 267.188 399.604H334.57V399.609Z" fill="#182848"/>
<path d="M347.379 417.692C348.287 414.827 349.271 404.438 345.398 403.723C343.91 403.448 340.142 403.237 338.373 403.131C316.142 401.842 285.597 401.848 263.355 403.102C261.562 403.202 257.941 403.442 256.359 403.723C255.445 403.887 254.678 404.356 254.414 405.293C253.881 407.168 253.318 416.409 254.408 417.663C255.41 417.961 256.471 418.26 257.525 418.354C278.344 420.153 301.09 416.936 321.996 417.751L347.379 417.692Z" fill="#182848"/>
<path d="M332.52 213.867C335.924 214.348 339.832 217.025 340.395 220.641C342.035 231.275 334.02 249.346 322.266 251.373L327.539 268.359H307.031L302.906 253.148L291.732 253.471L285.645 268.359H265.43C269.273 254.59 277.107 240.229 279.902 226.289C280.664 222.492 281.619 219.223 278.918 215.906C278.092 214.893 276.855 214.852 276.562 213.867H332.52ZM295.898 240.234H310.84C315.27 240.234 320.268 232.096 318.469 228.51C317.303 226.189 305.203 226.406 302.607 226.729C301.963 226.811 301.307 226.693 300.873 227.338L295.904 240.24L295.898 240.234Z" fill="#FDFBE1"/>
<path d="M236.637 201.645L237.305 215.631L205.336 212.672C196.213 213.053 200.608 228.487 201.744 234.487C207.668 265.723 223.828 295.74 256.512 304.524C259.84 305.42 265.67 305.813 268.207 306.891C268.817 307.149 276.334 312.926 277.576 313.899C278.051 314.274 278.66 313.887 278.315 315.241C273.586 314.842 268.729 315.586 263.971 315.235C218.115 311.824 191.233 266.912 188.678 224.707C188.057 214.494 187.992 203.983 199.336 200.221C211.588 197.783 224.309 200.766 236.637 201.651V201.645Z" fill="#FDFBE1"/>
<path d="M322.852 315.229L332.959 306.885C374.373 302.473 395.068 268.002 400.682 229.881C402 220.922 405.188 212.303 392.842 212.672C388.992 212.789 364.887 216.662 363.861 215.625L364.447 201.557L396.99 199.195C403.723 199.729 409.6 202.752 412.02 209.361C415.629 219.217 410.115 246.516 406.658 256.951C394.863 292.559 361.318 318.656 322.846 315.223L322.852 315.229Z" fill="#FDFBE1"/>
<path d="M364.453 197.455C363.709 195.1 365.59 195.662 365.625 193.951C361.09 192.891 356.408 192.246 351.785 191.672C318.428 187.535 277.324 187.096 244.131 192.27C242.818 192.475 234.984 193.248 236.215 195.053C237.75 195.053 237.322 196.172 237.316 197.455C227.273 198.627 225.205 186 234.492 183.211C241.078 181.231 254.888 180.445 262.224 179.889C289.23 177.838 318.416 178.061 345.416 180.469C351.375 181.002 362.871 181.729 368.133 183.533C376.804 186.504 373.904 198.563 364.459 197.455H364.453Z" fill="#FDFBE1"/>
<path d="M347.594 417.663H322.724C301.761 417.663 299.156 417.663 259.088 417.663C258.033 417.569 255.41 417.961 254.408 417.663C253.318 416.409 253.881 407.168 254.414 405.293C254.683 404.356 255.445 403.893 256.359 403.723C257.935 403.436 261.562 403.202 263.355 403.102C285.597 401.848 316.142 401.842 338.373 403.131C340.142 403.237 343.91 403.448 345.398 403.723C349.271 404.438 347.594 414.038 347.594 417.663Z" fill="#FDFBE1"/>
<path d="M270.112 202.154L259.876 207.434C253.231 212.537 253.917 222.346 254.268 230.004C255.358 253.623 264.27 287.057 279.774 305.279C282.03 307.934 285.065 310.02 287.104 312.885C275.655 309 268.008 298.863 262.395 288.674C248.807 264.012 245.251 232.887 246.358 205.055C247.729 202.969 266.643 202.441 270.106 202.154H270.112Z" fill="#FDFBE1"/>
<path d="M306.738 332.227C307.313 332.596 307.5 333.035 307.617 333.691C308.127 336.568 307.893 341.133 308.203 344.238C308.906 351.275 309.463 359.49 310.705 366.346C311.262 369.398 312.24 374.367 315.217 375.604L317.256 376.77C308.062 376.488 296.49 376.77 286.266 376.77C287.958 375.604 288.621 374.467 289.319 372.832C290.303 370.523 290.76 367.752 291.129 365.268C292.74 354.563 292.875 343.043 294.135 332.238H306.733L306.738 332.227Z" fill="#FDFBE1"/>
<path d="M334.571 399.609H267.188C266.901 397.09 267.44 394.975 269.544 393.469L330.727 393.205C333.809 393.557 334.518 397.049 334.571 399.615V399.609Z" fill="#FDFBE1"/>
<path d="M322.265 388.477H279.492C279.556 386.35 278.801 381.949 281.543 381.445L320.683 381.563C323.162 382.289 322.06 386.437 322.265 388.477Z" fill="#FDFBE1"/>
<path d="M312.299 322.266C312.299 323.578 312.609 324.932 311.766 326.121C309.404 329.438 290.021 328.441 289.436 325.975L289.459 322.271C296.924 324.082 304.887 324.938 312.299 322.271V322.266Z" fill="#FDFCE0"/>
<path d="M295.898 240.234L300.867 227.332C301.301 226.688 301.957 226.805 302.602 226.723C305.197 226.4 317.297 226.184 318.463 228.504C320.262 232.09 315.27 240.229 310.834 240.229H295.893L295.898 240.234Z" fill="#1A2D4B"/>
</g>
<defs>
<clipPath id="clip0_2516_201">
<rect width="600" height="600" rx="35" fill="white"/>
</clipPath>
</defs>
</svg>
