<?xml version="1.0" encoding="UTF-8" standalone="no"?>
<!DOCTYPE svg PUBLIC "-//W3C//DTD SVG 1.1//EN" "http://www.w3.org/Graphics/SVG/1.1/DTD/svg11.dtd">
<svg width="100%" height="100%" viewBox="0 0 611 233" version="1.1" xmlns="http://www.w3.org/2000/svg" xmlns:xlink="http://www.w3.org/1999/xlink" xml:space="preserve" xmlns:serif="http://www.serif.com/" style="fill-rule:evenodd;clip-rule:evenodd;stroke-linejoin:round;stroke-miterlimit:2;">
    <g transform="matrix(0.870456,0,0,0.804712,14.2373,48.1777)">
        <rect id="アートボード1" x="-16.356" y="-59.87" width="701.769" height="288.87" style="fill:none;"/>
        <g id="アートボード11" serif:id="アートボード1">
            <g transform="matrix(1.14882,0,0,1.24268,-11.9761,-55.4117)">
                <path d="M368.51,58.113L368.51,10.106L393.673,10.106C397.474,10.106 401.119,11.616 403.807,14.303C406.495,16.991 408.005,20.636 408.005,24.437L408.005,28.595C408.005,32.676 404.696,35.985 400.615,35.985L398.639,35.985C403.883,35.985 408.202,40.102 408.454,45.339L409.068,58.113L397.4,58.113L396.871,49.859C396.571,45.177 392.686,41.533 387.994,41.533L380.374,41.533L380.374,58.113L368.51,58.113ZM396.796,25.876C396.796,24.311 396.174,22.809 395.067,21.702C393.96,20.595 392.458,19.973 390.892,19.973L379.938,19.973L379.938,31.895L390.896,31.895C394.154,31.895 396.796,29.253 396.796,25.995L396.796,25.876Z" style="fill:rgb(10,39,34);"/>
            </g>
            <g transform="matrix(0.503307,1.10747,-1.02383,0.544426,326.895,-258.917)">
                <path d="M267.382,138.954C253.281,138.954 241.849,150.386 241.849,164.487C241.849,178.58 253.29,190.021 267.382,190.021C281.475,190.021 292.916,178.58 292.916,164.487C292.916,157.716 290.226,151.221 285.437,146.433L277.2,154.67C279.803,157.274 281.266,160.805 281.266,164.487C281.266,172.15 275.045,178.371 267.382,178.371C259.72,178.371 253.499,172.15 253.499,164.487C253.499,156.82 259.715,150.604 267.382,150.604L267.382,138.954Z" style="fill:rgb(10,39,34);"/>
            </g>
            <g transform="matrix(0.503307,1.10747,-1.02383,0.544426,617.507,-259.598)">
                <path d="M267.382,138.954C253.281,138.954 241.849,150.386 241.849,164.487C241.849,178.58 253.29,190.021 267.382,190.021C281.475,190.021 292.916,178.58 292.916,164.487C292.916,157.716 290.226,151.221 285.437,146.433L277.2,154.67C279.803,157.274 281.266,160.805 281.266,164.487C281.266,172.15 275.045,178.371 267.382,178.371C259.72,178.371 253.499,172.15 253.499,164.487C253.499,156.82 259.715,150.604 267.382,150.604L267.382,138.954Z" style="fill:rgb(10,39,34);"/>
            </g>
            <g transform="matrix(1.14882,0,0,1.24268,-11.9761,-55.4117)">
                <g transform="matrix(1,0,0,1,-3.81262,-3.5873)">
                    <path d="M75.26,118.141L53.806,118.141C48.427,107.265 45.382,94.864 45.382,81.701C45.382,66.323 49.539,51.985 56.715,39.903C69.646,18.135 92.378,3.691 118.263,3.691L118.263,52.993C105.046,59.204 93.979,68.822 86.383,80.612C82.884,86.045 80.121,91.939 78.224,98.173C76.293,104.519 75.26,111.217 75.26,118.141Z" style="fill:rgb(245,189,29);"/>
                </g>
                <g transform="matrix(1,0,0,1,-3.81262,-3.5873)">
                    <path d="M75.26,118.141L53.806,118.141C48.427,107.265 45.382,94.864 45.382,81.701C45.382,66.323 49.539,51.985 56.715,39.903C60.874,53.316 66.122,64.399 73.871,72.13C80.59,50.108 97.071,32.327 118.263,23.839L118.263,52.993C105.046,59.204 93.979,68.822 86.383,80.612C82.884,86.045 80.121,91.939 78.224,98.173C76.293,104.519 75.26,111.217 75.26,118.141Z" style="fill:rgb(234,89,22);"/>
                </g>
                <path d="M82.571,77.025C79.071,82.458 76.308,88.351 74.411,94.586C72.48,100.931 71.447,107.63 71.447,114.554L70.615,114.554C69.521,111.261 68.648,107.868 68.012,104.392C67.197,99.942 66.772,95.358 66.772,90.674C66.772,82.976 67.921,75.545 70.058,68.542C73.646,72.122 77.77,74.983 82.571,77.025Z" style="fill:rgb(121,42,35);"/>
            </g>
            <g transform="matrix(1.14882,0,0,1.24268,-11.9761,-55.4117)">
                <g transform="matrix(1,0,0,1,-3.81262,-3.5873)">
                    <path d="M118.263,73.224L118.263,52.993C128.79,48.046 140.681,45.26 153.269,45.26C162.001,45.26 170.399,46.601 178.238,49.074C209.076,58.801 231.279,86.049 231.279,118.141L182.852,118.141C180.094,111.844 176.572,106.006 172.415,100.763C166.119,92.825 158.365,86.252 149.596,81.52C140.146,76.42 129.517,73.457 118.263,73.224Z" style="fill:rgb(56,187,199);"/>
                </g>
                <g transform="matrix(1,0,0,1,-3.81262,-3.5873)">
                    <path d="M118.263,73.224L118.263,52.993C128.79,48.046 140.681,45.26 153.269,45.26C162.001,45.26 170.399,46.601 178.238,49.074C174.145,58.587 168.675,66.201 162.14,72.292C165.588,73.43 168.927,74.809 172.137,76.409C189.354,84.991 202.856,99.929 209.564,118.141L182.852,118.141C180.094,111.844 176.572,106.006 172.415,100.763C166.119,92.825 158.365,86.252 149.596,81.52C140.146,76.42 129.517,73.457 118.263,73.224Z" style="fill:rgb(34,73,157);"/>
                </g>
                <path d="M145.784,77.933C136.333,72.833 125.704,69.87 114.45,69.637L114.45,67.605C120.858,65.843 127.605,64.902 134.57,64.902C142.866,64.902 150.853,66.237 158.327,68.705C154.491,72.28 150.289,75.33 145.784,77.933Z" style="fill:rgb(19,47,122);"/>
            </g>
            <g transform="matrix(1.14882,0,0,1.24268,-11.9761,-55.4117)">
                <g transform="matrix(1,0,0,1,-3.81262,-3.5873)">
                    <path d="M57.6,187.44C26.374,177.92 3.813,150.492 3.813,118.141L53.806,118.141C56.46,123.51 59.683,128.507 63.389,133.041C70.175,141.344 78.579,148.093 88.075,152.725C93.83,155.532 99.985,157.561 106.425,158.687C109.82,159.28 113.293,159.623 116.829,159.696L116.829,183.29C106.301,188.237 94.41,191.022 81.822,191.022C73.366,191.022 65.225,189.765 57.6,187.44Z" style="fill:rgb(215,12,77);fill-opacity:0.98;"/>
                </g>
                <g transform="matrix(1,0,0,1,-3.81262,-3.5873)">
                    <path d="M74.923,161.871C71.029,160.661 67.27,159.145 63.672,157.352C47.257,149.169 34.218,135.209 27.226,118.141L53.806,118.141C56.46,123.51 59.683,128.507 63.389,133.041C70.175,141.344 78.579,148.093 88.075,152.725C93.83,155.532 99.985,157.561 106.425,158.687C109.82,159.28 113.293,159.623 116.829,159.696L116.829,183.29C106.301,188.237 94.41,191.022 81.822,191.022C73.366,191.022 65.225,189.765 57.6,187.44C62.255,177.715 67.669,168.805 74.923,161.871Z" style="fill:rgb(147,28,74);"/>
                </g>
                <path d="M84.262,149.138C90.017,151.944 96.173,153.973 102.612,155.099C106.007,155.693 109.481,156.035 113.016,156.108L113.016,159.175C112.378,159.344 111.736,159.504 111.092,159.657C105.48,160.982 99.629,161.684 93.615,161.684C85.78,161.684 78.222,160.493 71.11,158.283C74.931,154.63 79.263,151.525 84.262,149.138Z" style="fill:rgb(106,21,51);"/>
            </g>
            <g transform="matrix(1.14882,0,0,1.24268,-11.9761,-55.4117)">
                <path d="M113.016,207.035L113.016,179.702C120.572,176.152 127.425,171.487 133.329,165.94C138.337,161.234 142.662,155.893 146.153,150.057C151.083,152.741 155.416,156.135 159.264,160.107C158.69,161.786 158.06,163.438 157.375,165.061C149.152,184.537 133.021,199.873 113.016,207.035Z" style="fill:rgb(15,106,59);"/>
                <g transform="matrix(1,0,0,1,-3.81262,-3.5873)">
                    <path d="M163.076,163.695C162.503,165.373 161.873,167.025 161.187,168.649C152.964,188.125 136.834,203.46 116.829,210.622L116.829,183.29C124.385,179.739 131.238,175.075 137.141,169.528C142.15,164.822 146.475,159.48 149.966,153.644C153.317,148.042 155.9,141.984 157.58,135.595C159.051,130.003 159.832,124.157 159.832,118.141L182.852,118.141C187.251,128.184 189.709,139.394 189.709,151.219C189.709,165.469 186.14,178.827 179.905,190.323C175.462,180.058 170.073,170.919 163.076,163.695Z" style="fill:rgb(15,106,59);"/>
                </g>
                <path d="M146.153,150.057C149.504,144.455 152.087,138.397 153.768,132.008C155.239,126.416 156.019,120.57 156.019,114.554L160.342,114.554C160.81,116.175 161.226,117.818 161.587,119.482C162.716,124.683 163.311,130.082 163.311,135.619C163.311,144.187 161.887,152.424 159.264,160.107C155.416,156.135 151.083,152.741 146.153,150.057Z" style="fill:rgb(12,74,48);"/>
                <path d="M160.342,114.554L179.04,114.554C183.439,124.596 185.897,135.807 185.897,147.632C185.897,161.882 182.327,175.24 176.093,186.736C171.65,176.471 166.261,167.332 159.264,160.107C161.887,152.424 163.311,144.187 163.311,135.619C163.311,130.082 162.716,124.683 161.587,119.482C161.226,117.818 160.81,116.175 160.342,114.554Z" style="fill:rgb(15,106,59);"/>
                <path d="M176.093,186.736C163.478,209.998 139.954,225.641 113.016,225.641L113.016,207.035C133.021,199.873 149.152,184.537 157.375,165.061C158.06,163.438 158.69,161.786 159.264,160.107C166.261,167.332 171.65,176.471 176.093,186.736Z" style="fill:rgb(34,176,98);"/>
            </g>
            <g transform="matrix(1.14882,0,0,1.24268,-16.3561,-59.8695)">
                <path d="M53.806,118.141L75.26,118.141C75.26,111.217 76.293,104.519 78.224,98.173C80.121,91.939 82.884,86.045 86.383,80.612C93.979,68.822 105.046,59.204 118.263,52.993L118.263,73.224C129.517,73.457 140.146,76.42 149.596,81.52C158.365,86.252 166.119,92.825 172.415,100.763C176.572,106.006 180.094,111.844 182.852,118.141L159.832,118.141C159.832,124.157 159.051,130.003 157.58,135.595C155.9,141.984 153.317,148.042 149.966,153.644C146.475,159.48 142.15,164.822 137.141,169.528C131.238,175.075 124.385,179.739 116.829,183.29L116.829,159.696C113.293,159.623 109.82,159.28 106.425,158.687C99.985,157.561 93.83,155.532 88.075,152.725C78.579,148.093 70.175,141.344 63.389,133.041C59.683,128.507 56.46,123.51 53.806,118.141ZM118.312,90.398C102.724,90.398 90.069,103.053 90.069,118.64C90.069,134.228 102.724,146.883 118.312,146.883C133.899,146.883 146.554,134.228 146.554,118.64C146.554,103.053 133.899,90.398 118.312,90.398Z" style="fill:rgb(10,39,34);"/>
            </g>
            <g transform="matrix(1.36759,0,0,1.47932,-56.8017,-80.7669)">
                <circle cx="128.961" cy="113.789" r="23.725" style="fill:white;"/>
            </g>
            <g transform="matrix(1.49372,0,0,1.61575,-182.628,-111.308)">
                <path d="M424.777,143.816L430.951,145.299C433.657,145.947 435.699,146.814 437.077,147.9C439.216,149.585 440.285,152.024 440.285,155.217C440.285,158.49 439.034,161.209 436.53,163.372C434.026,165.536 430.489,166.617 425.919,166.617C421.252,166.617 417.582,165.552 414.908,163.421C412.234,161.29 410.897,158.361 410.897,154.633L418.044,154.633C418.27,156.27 418.716,157.494 419.381,158.304C420.596,159.779 422.678,160.516 425.628,160.516C427.394,160.516 428.828,160.322 429.93,159.933C432.021,159.187 433.066,157.802 433.066,155.776C433.066,154.593 432.547,153.677 431.51,153.029C430.473,152.397 428.844,151.838 426.624,151.352L422.832,150.501C419.105,149.658 416.528,148.743 415.102,147.754C412.688,146.101 411.48,143.517 411.48,140C411.48,136.791 412.647,134.125 414.981,132.003C417.314,129.88 420.742,128.818 425.263,128.818C429.039,128.818 432.26,129.819 434.926,131.82C437.591,133.822 438.989,136.726 439.119,140.535L431.923,140.535C431.794,138.379 430.854,136.848 429.104,135.94C427.937,135.341 426.487,135.041 424.753,135.041C422.824,135.041 421.285,135.43 420.134,136.208C418.983,136.986 418.408,138.072 418.408,139.465C418.408,140.745 418.975,141.702 420.11,142.334C420.839,142.755 422.395,143.249 424.777,143.816Z" style="fill:rgb(10,39,34);"/>
                <path d="M457.982,143.816L464.156,145.299C466.862,145.947 468.904,146.814 470.282,147.9C472.421,149.585 473.49,152.024 473.49,155.217C473.49,158.49 472.239,161.209 469.735,163.372C467.231,165.536 463.694,166.617 459.124,166.617C454.457,166.617 450.787,165.552 448.113,163.421C445.439,161.29 444.102,158.361 444.102,154.633L451.248,154.633C451.475,156.27 451.921,157.494 452.585,158.304C453.801,159.779 455.883,160.516 458.833,160.516C460.599,160.516 462.033,160.322 463.135,159.933C465.226,159.187 466.271,157.802 466.271,155.776C466.271,154.593 465.752,153.677 464.715,153.029C463.678,152.397 462.049,151.838 459.829,151.352L456.037,150.501C452.31,149.658 449.733,148.743 448.307,147.754C445.893,146.101 444.685,143.517 444.685,140C444.685,136.791 445.852,134.125 448.186,132.003C450.519,129.88 453.947,128.818 458.468,128.818C462.244,128.818 465.465,129.819 468.13,131.82C470.796,133.822 472.194,136.726 472.324,140.535L465.128,140.535C464.999,138.379 464.059,136.848 462.309,135.94C461.142,135.341 459.691,135.041 457.957,135.041C456.029,135.041 454.49,135.43 453.339,136.208C452.188,136.986 451.613,138.072 451.613,139.465C451.613,140.745 452.18,141.702 453.315,142.334C454.044,142.755 455.6,143.249 457.982,143.816Z" style="fill:rgb(10,39,34);"/>
                <g transform="matrix(1,0,0,1,-68.9368,-44.4112)">
                    <path d="M457.982,143.816L464.156,145.299C466.862,145.947 468.904,146.814 470.282,147.9C472.421,149.585 473.49,152.024 473.49,155.217C473.49,158.49 472.239,161.209 469.735,163.372C467.231,165.536 463.694,166.617 459.124,166.617C454.457,166.617 450.787,165.552 448.113,163.421C445.439,161.29 444.102,158.361 444.102,154.633L451.248,154.633C451.475,156.27 451.921,157.494 452.585,158.304C453.801,159.779 455.883,160.516 458.833,160.516C460.599,160.516 462.033,160.322 463.135,159.933C465.226,159.187 466.271,157.802 466.271,155.776C466.271,154.593 465.752,153.677 464.715,153.029C463.678,152.397 462.049,151.838 459.829,151.352L456.037,150.501C452.31,149.658 449.733,148.743 448.307,147.754C445.893,146.101 444.685,143.517 444.685,140C444.685,136.791 445.852,134.125 448.186,132.003C450.519,129.88 453.947,128.818 458.468,128.818C462.244,128.818 465.465,129.819 468.13,131.82C470.796,133.822 472.194,136.726 472.324,140.535L465.128,140.535C464.999,138.379 464.059,136.848 462.309,135.94C461.142,135.341 459.691,135.041 457.957,135.041C456.029,135.041 454.49,135.43 453.339,136.208C452.188,136.986 451.613,138.072 451.613,139.465C451.613,140.745 452.18,141.702 453.315,142.334C454.044,142.755 455.6,143.249 457.982,143.816Z" style="fill:rgb(10,39,34);"/>
                </g>
            </g>
            <g transform="matrix(1.14882,0,0,1.24268,-11.9761,-55.4117)">
                <path d="M294.154,170.009L294.154,122.13L305.139,122.13L305.139,159.804L328.751,159.804L328.751,170.009L294.154,170.009Z" style="fill:rgb(10,39,34);"/>
            </g>
            <g transform="matrix(1.14882,0,0,1.24268,299.641,-124.392)">
                <path d="M294.154,170.009L294.154,122.13L305.139,122.13L305.139,159.804L328.751,159.804L328.751,170.009L294.154,170.009Z" style="fill:rgb(10,39,34);"/>
            </g>
            <g transform="matrix(1.14882,0,0,1.24268,255.62,-124.392)">
                <path d="M294.154,170.009L294.154,122.13L305.139,122.13L305.139,159.804L328.751,159.804L328.751,170.009L294.154,170.009Z" style="fill:rgb(10,39,34);"/>
            </g>
            <g transform="matrix(1.14882,0,0,1.24268,127.533,-194.849)">
                <path d="M294.154,170.009L294.154,122.13L305.139,122.13L305.139,159.804L328.751,159.804L328.751,170.009L294.154,170.009Z" style="fill:rgb(10,39,34);"/>
            </g>
            <g transform="matrix(1.27854,0,0,1.39912,-40.0784,-62.4861)">
                <path d="M325.545,13.87C337.669,13.87 347.511,23.713 347.511,35.836C347.511,47.959 337.669,57.802 325.545,57.802C313.422,57.802 303.579,47.959 303.579,35.836C303.579,23.713 313.422,13.87 325.545,13.87ZM325.545,23.273C332.479,23.273 338.108,28.902 338.108,35.836C338.108,42.769 332.479,48.399 325.545,48.399C318.612,48.399 312.983,42.769 312.983,35.836C312.983,28.902 318.612,23.273 325.545,23.273Z" style="fill:rgb(10,39,34);"/>
            </g>
            <g transform="matrix(1.14882,0,0,1.24268,-11.9761,-55.4117)">
                <path d="M252.352,10.106L260.469,43.595L268.585,10.106L283.969,10.106L292.085,43.595L300.202,10.106L311.387,10.106L298.404,58.113L284.659,58.113L276.172,23.095L267.685,58.113L252.423,58.113L239.44,10.106L252.352,10.106Z" style="fill:rgb(10,39,34);"/>
            </g>
            <g transform="matrix(1.14882,0,0,1.24268,-11.9761,-55.4117)">
                <path d="M422.459,75.909L396.05,75.909L396.05,84.863L418.321,84.863L418.321,94.958L396.05,94.958L396.05,103.912L422.459,103.912L422.459,114.5L385.179,114.5L385.179,66.027L422.459,66.027L422.459,75.909Z" style="fill:rgb(10,39,34);"/>
            </g>
            <g transform="matrix(1.14882,0,0,1.24268,-11.9761,-55.4117)">
                <rect x="475.803" y="122.272" width="11.805" height="49.128" style="fill:rgb(10,39,34);"/>
            </g>
            <g transform="matrix(1.14882,0,0,1.24268,-11.9761,-55.4117)">
                <path d="M276.715,89.968C281.441,90.311 285.169,94.254 285.169,99.067L285.169,101.203C285.169,108.37 279.359,114.181 272.191,114.181L243.969,114.181L243.969,66.027L269.318,66.027C273.055,66.027 276.639,67.511 279.282,70.154C281.924,72.796 283.409,76.381 283.409,80.118L283.409,81.277C283.409,85.447 280.568,88.954 276.715,89.968ZM271.415,79.952C271.415,78.896 270.996,77.884 270.25,77.138C269.504,76.392 268.491,75.972 267.436,75.972L254.985,75.972L254.985,85.176L267.174,85.176C269.516,85.176 271.415,83.277 271.415,80.934L271.415,79.952ZM272.6,97.973C272.6,95.775 270.819,93.994 268.621,93.994L254.985,93.994L254.985,105.022L268.358,105.022C270.701,105.022 272.6,103.123 272.6,100.78L272.6,97.973Z" style="fill:rgb(10,39,34);"/>
            </g>
            <g transform="matrix(1.14882,0,0,1.24268,198.688,-54.8439)">
                <path d="M276.715,89.968C281.441,90.311 285.169,94.254 285.169,99.067L285.169,101.203C285.169,108.37 279.359,114.181 272.191,114.181L243.969,114.181L243.969,66.027L269.318,66.027C273.055,66.027 276.639,67.511 279.282,70.154C281.924,72.796 283.409,76.381 283.409,80.118L283.409,81.277C283.409,85.447 280.568,88.954 276.715,89.968ZM271.415,79.952C271.415,78.896 270.996,77.884 270.25,77.138C269.504,76.392 268.491,75.972 267.436,75.972L254.985,75.972L254.985,85.176L267.174,85.176C269.516,85.176 271.415,83.277 271.415,80.934L271.415,79.952ZM272.6,97.973C272.6,95.775 270.819,93.994 268.621,93.994L254.985,93.994L254.985,105.022L268.358,105.022C270.701,105.022 272.6,103.123 272.6,100.78L272.6,97.973Z" style="fill:rgb(10,39,34);"/>
            </g>
            <g transform="matrix(1.14882,0,0,1.24268,-11.9761,-55.4117)">
                <path d="M498.634,31.775L498.634,35.283C498.634,47.685 488.581,57.738 476.179,57.738L454.849,57.738L454.849,10.41L477.269,10.41C489.069,10.41 498.634,19.975 498.634,31.775ZM486.654,31.762C486.654,28.612 485.403,25.59 483.175,23.362C480.947,21.134 477.925,19.882 474.774,19.882L467.08,19.882L467.08,47.893L474.848,47.893C481.368,47.893 486.654,42.607 486.654,36.086L486.654,31.762Z" style="fill:rgb(10,39,34);"/>
            </g>
            <g transform="matrix(1.28295,0,0,1.08169,-43.4639,-34.7684)">
                <path d="M221.691,118.901L221.691,123.405L220.565,123.405L220.565,118.901L218.83,118.901L218.83,118.031L223.43,118.031L223.43,118.901L221.691,118.901Z" style="fill-rule:nonzero;"/>
                <path d="M228.498,123.405L228.498,120.148C228.498,120.074 228.499,120.001 228.5,119.927C228.502,119.853 228.514,119.537 228.537,118.977C228.356,119.661 228.223,120.138 228.136,120.407L227.167,123.405L226.366,123.405L225.398,120.407L224.99,118.977C225.02,119.567 225.035,119.957 225.035,120.148L225.035,123.405L224.036,123.405L224.036,118.031L225.543,118.031L226.504,121.037L226.588,121.327L226.771,122.047L227.011,121.185L227.999,118.031L229.498,118.031L229.498,123.405L228.498,123.405Z" style="fill-rule:nonzero;"/>
            </g>
            <g transform="matrix(1.14882,0,0,1.24268,-11.9761,-55.4117)">
                <g transform="matrix(1.11675,0,0,0.870451,298.764,63.0284)">
                    <path d="M221.691,118.901L221.691,123.405L220.565,123.405L220.565,118.901L218.83,118.901L218.83,118.031L223.43,118.031L223.43,118.901L221.691,118.901Z"/>
                </g>
                <g transform="matrix(1.11675,0,0,0.870451,298.764,63.0284)">
                    <path d="M228.498,123.405L228.498,120.148C228.498,120.074 228.499,120.001 228.5,119.927C228.502,119.853 228.514,119.537 228.537,118.977C228.356,119.661 228.223,120.138 228.136,120.407L227.167,123.405L226.366,123.405L225.398,120.407L224.99,118.977C225.02,119.567 225.035,119.957 225.035,120.148L225.035,123.405L224.036,123.405L224.036,118.031L225.543,118.031L226.504,121.037L226.588,121.327L226.771,122.047L227.011,121.185L227.999,118.031L229.498,118.031L229.498,123.405L228.498,123.405Z"/>
                </g>
            </g>
            <g transform="matrix(1.14882,0,0,1.24268,-11.9761,-55.4117)">
                <path d="M346.623,161.106L343.522,170.019L331.999,170.019L348.452,122.225L366.993,122.225L383.446,170.019L371.923,170.019L368.822,161.106L346.623,161.106ZM365.628,151.925L357.723,129.2L349.817,151.925L365.628,151.925Z" style="fill:rgb(10,39,34);"/>
            </g>
            <g transform="matrix(1.14882,0,0,1.24268,-65.3175,-124.404)">
                <path d="M346.623,161.106L343.522,170.019L331.999,170.019L348.452,122.225L366.993,122.225L383.446,170.019L371.923,170.019L368.822,161.106L346.623,161.106ZM365.628,151.925L357.723,129.2L349.817,151.925L365.628,151.925Z" style="fill:rgb(10,39,34);"/>
            </g>
            <g transform="matrix(1.14882,0,0,1.24268,145.987,-124.404)">
                <path d="M346.623,161.106L343.522,170.019L331.999,170.019L348.452,122.225L366.993,122.225L383.446,170.019L371.923,170.019L368.822,161.106L346.623,161.106ZM365.628,151.925L357.723,129.2L349.817,151.925L365.628,151.925Z" style="fill:rgb(10,39,34);"/>
            </g>
        </g>
    </g>
</svg>
